<svg xmlns="http://www.w3.org/2000/svg" width="28" height="19" viewBox="0 0 28 19" fill="none">
  <path fill-rule="evenodd" clip-rule="evenodd" d="M28.0001 15.909V3.64678C28 2.02198 26.6827 0.704345 25.058 0.704557H17.1582H16.2133C16.2133 0.704557 15.6555 0.702712 14.8728 0.704552H13.695C12.913 0.702712 12.25 0.704625 12.25 0.704625L11.4301 0.704557H2.94158C1.31678 0.704699 -0.000212254 2.02198 2.56586e-08 3.64678V15.9101C0.000212401 17.5348 1.31749 18.8518 2.94222 18.8516H25.0589C26.6837 18.8513 28.0005 17.5338 28.0001 15.909ZM11.1618 13.1804C11.1616 11.3139 9.64837 9.80086 7.7818 9.80107H7.78145C5.91495 9.80128 4.4019 11.3145 4.40211 13.1811V14.1765H11.1618V13.1804ZM7.78172 9.80105C9.00746 9.80105 10.0011 8.8112 10.0011 7.59015C10.0011 6.36911 9.00746 5.37926 7.78172 5.37926C6.55599 5.37926 5.56234 6.36911 5.56234 7.59015C5.56234 8.8112 6.55599 9.80105 7.78172 9.80105ZM14.8845 7.00001H24.4076C24.5647 7.00001 24.7154 6.93758 24.8266 6.82646C24.9377 6.71534 25.0001 6.56462 25.0001 6.40747C25.0001 6.25032 24.9377 6.09961 24.8266 5.98849C24.7154 5.87737 24.5647 5.81494 24.4076 5.81494H14.8845C14.5572 5.81494 14.2919 6.08021 14.2919 6.40747C14.2919 6.73474 14.5572 7.00001 14.8845 7.00001ZM14.8844 10.5H24.4076C24.7348 10.5 25.0001 10.2347 25.0001 9.90746C25.0001 9.58019 24.7348 9.31493 24.4076 9.31493H14.8844C14.5571 9.31493 14.2919 9.58019 14.2919 9.90746C14.2919 10.2347 14.5571 10.5 14.8844 10.5ZM14.8845 14H24.4076C24.5647 14 24.7154 13.9376 24.8266 13.8264C24.9377 13.7153 25.0001 13.5646 25.0001 13.4075C25.0001 13.2503 24.9377 13.0996 24.8266 12.9885C24.7154 12.8774 24.5647 12.8149 24.4076 12.8149H14.8845C14.5572 12.8149 14.2919 13.0802 14.2919 13.4075C14.2919 13.7347 14.5572 14 14.8845 14Z" fill="#0054A6"/>
</svg>